<svg width="127" height="127" viewBox="0 0 127 127" fill="none" xmlns="http://www.w3.org/2000/svg">
<g clip-path="url(#clip0_144_1616)">
<mask id="path-1-inside-1_144_1616" fill="white">
<path d="M85.771 12.7645L18.9312 30.6742C14.3359 31.9055 11.5754 36.6421 12.7967 41.2L32.7813 115.784L45.0503 94.7321L103.535 79.0611C108.13 77.8298 110.891 73.0932 109.67 68.5353L96.3465 18.8128C95.1253 14.2549 90.3663 11.5332 85.771 12.7645ZM101.315 70.774L42.8298 86.445L36.6953 96.9708L21.1517 38.9612L87.9916 21.0516L101.315 70.774Z"/>
</mask>
<path d="M85.771 12.7645L18.9312 30.6742C14.3359 31.9055 11.5754 36.6421 12.7967 41.2L32.7813 115.784L45.0503 94.7321L103.535 79.0611C108.13 77.8298 110.891 73.0932 109.67 68.5353L96.3465 18.8128C95.1253 14.2549 90.3663 11.5332 85.771 12.7645ZM101.315 70.774L42.8298 86.445L36.6953 96.9708L21.1517 38.9612L87.9916 21.0516L101.315 70.774Z" fill="#2556C1"/>
<path d="M32.7813 115.784L23.1221 118.372L29.3346 141.557L41.4211 120.819L32.7813 115.784ZM45.0503 94.7321L42.4621 85.0728L38.4842 86.1387L36.4105 89.6968L45.0503 94.7321ZM101.315 70.774L103.903 80.4333L113.562 77.8451L110.974 68.1858L101.315 70.774ZM42.8298 86.445L40.2416 76.7857L36.2636 77.8516L34.19 81.4097L42.8298 86.445ZM36.6953 96.9708L27.036 99.559L33.2486 122.745L45.3351 102.006L36.6953 96.9708ZM21.1517 38.9612L18.5635 29.302L8.90422 31.8902L11.4924 41.5494L21.1517 38.9612ZM87.9916 21.0516L97.6508 18.4634L95.0626 8.80411L85.4034 11.3923L87.9916 21.0516ZM85.771 12.7645L83.1829 3.10522L16.343 21.0149L18.9312 30.6742L21.5193 40.3334L88.3592 22.4237L85.771 12.7645ZM18.9312 30.6742L16.343 21.0149C6.48754 23.6557 0.466854 33.8214 3.13743 43.7881L12.7967 41.2L22.4559 38.6118C22.684 39.4627 22.1843 40.1553 21.5193 40.3334L18.9312 30.6742ZM12.7967 41.2L3.13743 43.7881L23.1221 118.372L32.7813 115.784L42.4406 113.195L22.4559 38.6118L12.7967 41.2ZM32.7813 115.784L41.4211 120.819L53.69 99.7674L45.0503 94.7321L36.4105 89.6968L24.1416 110.748L32.7813 115.784ZM45.0503 94.7321L47.6385 104.391L106.123 88.7204L103.535 79.0611L100.947 69.4018L42.4621 85.0728L45.0503 94.7321ZM103.535 79.0611L106.123 88.7204C115.979 86.0796 121.999 75.9138 119.329 65.9471L109.67 68.5353L100.01 71.1235C99.7824 70.2726 100.282 69.58 100.947 69.4018L103.535 79.0611ZM109.67 68.5353L119.329 65.9471L106.006 16.2247L96.3465 18.8128L86.6873 21.401L100.01 71.1235L109.67 68.5353ZM96.3465 18.8128L106.006 16.2247C103.335 6.25793 93.0383 0.464463 83.1829 3.10522L85.771 12.7645L88.3592 22.4237C87.6943 22.6019 86.9153 22.252 86.6873 21.401L96.3465 18.8128ZM101.315 70.774L98.7265 61.1148L40.2416 76.7857L42.8298 86.445L45.4179 96.1043L103.903 80.4333L101.315 70.774ZM42.8298 86.445L34.19 81.4097L28.0555 91.9355L36.6953 96.9708L45.3351 102.006L51.4695 91.4803L42.8298 86.445ZM36.6953 96.9708L46.3545 94.3826L30.8109 36.3731L21.1517 38.9612L11.4924 41.5494L27.036 99.559L36.6953 96.9708ZM21.1517 38.9612L23.7399 48.6205L90.5797 30.7108L87.9916 21.0516L85.4034 11.3923L18.5635 29.302L21.1517 38.9612ZM87.9916 21.0516L78.3323 23.6397L91.6554 73.3622L101.315 70.774L110.974 68.1858L97.6508 18.4634L87.9916 21.0516Z" fill="#2556C1" mask="url(#path-1-inside-1_144_1616)"/>
</g>
<defs>
<clipPath id="clip0_144_1616">
<rect width="103.797" height="102.953" fill="white" transform="translate(0 26.8645) rotate(-15)"/>
</clipPath>
</defs>
</svg>
